<svg width="231" height="80" viewBox="0 0 231 80" fill="none" xmlns="http://www.w3.org/2000/svg">
<g clip-path="url(#clip0_15_192)">
<path d="M21.6 25.3474C24.6877 25.3474 27.3965 25.9509 29.7263 27.1579C32.0842 28.3649 33.8947 30.0912 35.1579 32.3368C36.4491 34.5544 37.0947 37.1368 37.0947 40.0842C37.0947 43.0316 36.4491 45.614 35.1579 47.8316C33.8947 50.0211 32.0842 51.7193 29.7263 52.9263C27.3965 54.1333 24.6877 54.7368 21.6 54.7368H11.3263V25.3474H21.6ZM21.3895 49.7263C24.4772 49.7263 26.8631 48.8842 28.5473 47.2C30.2316 45.5158 31.0737 43.1439 31.0737 40.0842C31.0737 37.0246 30.2316 34.6386 28.5473 32.9263C26.8631 31.186 24.4772 30.3158 21.3895 30.3158H17.221V49.7263H21.3895ZM47.4021 35.0316C48.16 33.7965 49.1424 32.8281 50.3495 32.1263C51.5845 31.4246 52.9881 31.0737 54.56 31.0737V37.2632H53.0021C51.1495 37.2632 49.7459 37.6982 48.7916 38.5684C47.8652 39.4386 47.4021 40.9544 47.4021 43.1158V54.7368H41.5073V31.4105H47.4021V35.0316ZM80.2144 42.5684C80.2144 43.4105 80.1582 44.1684 80.046 44.8421H62.9933C63.1337 46.5263 63.7231 47.8456 64.7617 48.8C65.8003 49.7544 67.0775 50.2316 68.5933 50.2316C70.7828 50.2316 72.3407 49.2912 73.267 47.4105H79.6249C78.9512 49.6561 77.66 51.5088 75.7512 52.9684C73.8424 54.4 71.4986 55.1158 68.7196 55.1158C66.474 55.1158 64.453 54.6246 62.6565 53.6421C60.8881 52.6316 59.4986 51.214 58.4881 49.3895C57.5056 47.5649 57.0144 45.4596 57.0144 43.0737C57.0144 40.6596 57.5056 38.5403 58.4881 36.7158C59.4705 34.8912 60.846 33.4877 62.6144 32.5053C64.3828 31.5228 66.4179 31.0316 68.7196 31.0316C70.9372 31.0316 72.9161 31.5088 74.6565 32.4632C76.4249 33.4175 77.7863 34.7789 78.7407 36.5474C79.7231 38.2877 80.2144 40.2947 80.2144 42.5684ZM74.1091 40.8842C74.081 39.3684 73.5337 38.1614 72.467 37.2632C71.4003 36.3368 70.0951 35.8737 68.5512 35.8737C67.0916 35.8737 65.8565 36.3228 64.846 37.2211C63.8635 38.0912 63.26 39.3123 63.0354 40.8842H74.1091ZM83.0014 42.9895C83.0014 40.6316 83.4645 38.5403 84.3909 36.7158C85.3453 34.8912 86.6224 33.4877 88.2224 32.5053C89.8505 31.5228 91.661 31.0316 93.654 31.0316C95.3944 31.0316 96.9102 31.3825 98.2014 32.0842C99.5207 32.786 100.573 33.6702 101.359 34.7368V31.4105H107.296V54.7368H101.359V51.3263C100.601 52.4211 99.5488 53.3333 98.2014 54.0632C96.8821 54.7649 95.3523 55.1158 93.6119 55.1158C91.647 55.1158 89.8505 54.6105 88.2224 53.6C86.6224 52.5895 85.3453 51.1719 84.3909 49.3474C83.4645 47.4947 83.0014 45.3754 83.0014 42.9895ZM101.359 43.0737C101.359 41.6421 101.079 40.4211 100.517 39.4105C99.9558 38.3719 99.1979 37.586 98.2435 37.0526C97.2891 36.4912 96.2645 36.2105 95.1698 36.2105C94.0751 36.2105 93.0645 36.4772 92.1382 37.0105C91.2119 37.5439 90.454 38.3298 89.8646 39.3684C89.3031 40.3789 89.0224 41.586 89.0224 42.9895C89.0224 44.393 89.3031 45.6281 89.8646 46.6947C90.454 47.7333 91.2119 48.5333 92.1382 49.0947C93.0926 49.6561 94.1031 49.9368 95.1698 49.9368C96.2645 49.9368 97.2891 49.6702 98.2435 49.1368C99.1979 48.5754 99.9558 47.7895 100.517 46.7789C101.079 45.7404 101.359 44.5053 101.359 43.0737ZM142.022 31.0737C144.885 31.0737 147.187 31.9579 148.927 33.7263C150.695 35.4667 151.58 37.9088 151.58 41.0526V54.7368H145.685V41.8526C145.685 40.0281 145.222 38.6386 144.295 37.6842C143.369 36.7018 142.106 36.2105 140.506 36.2105C138.906 36.2105 137.629 36.7018 136.674 37.6842C135.748 38.6386 135.285 40.0281 135.285 41.8526V54.7368H129.39V41.8526C129.39 40.0281 128.927 38.6386 128.001 37.6842C127.074 36.7018 125.811 36.2105 124.211 36.2105C122.583 36.2105 121.292 36.7018 120.338 37.6842C119.411 38.6386 118.948 40.0281 118.948 41.8526V54.7368H113.053V31.4105H118.948V34.2316C119.706 33.2491 120.674 32.4772 121.853 31.9158C123.06 31.3544 124.38 31.0737 125.811 31.0737C127.636 31.0737 129.264 31.4667 130.695 32.2526C132.127 33.0105 133.236 34.1053 134.022 35.5368C134.78 34.1895 135.874 33.1088 137.306 32.2947C138.766 31.4807 140.338 31.0737 142.022 31.0737Z" fill="white"/>
<path d="M199.167 21.8083C192.18 21.8083 186.247 26.3403 184.169 32.6258C183.828 33.6592 182.712 34.2203 181.676 33.8792C180.641 33.5381 180.079 32.424 180.421 31.3906C183.017 23.5386 190.426 17.8677 199.167 17.8677C208.754 17.8677 216.742 24.6897 218.53 33.7372C224.313 34.517 228.772 39.4646 228.772 45.4519C228.772 51.9811 223.47 57.274 216.93 57.274H167.588C166.498 57.274 165.614 56.3916 165.614 55.3035C165.614 54.2154 166.498 53.3333 167.588 53.3333H216.93C221.29 53.3333 224.825 49.8046 224.825 45.4519C224.825 41.1011 221.293 37.5733 216.935 37.5709C216.933 37.5709 216.932 37.5709 216.93 37.5709L216.832 37.5712C215.822 37.5768 214.971 36.8197 214.86 35.8175C213.987 27.9381 207.293 21.8083 199.167 21.8083ZM165.614 39.5411C165.614 38.453 166.498 37.5709 167.588 37.5709H195.219C196.309 37.5709 197.193 38.453 197.193 39.5411C197.193 40.6291 196.309 41.5112 195.219 41.5112H167.588C166.498 41.5112 165.614 40.6291 165.614 39.5411ZM165.614 47.4225C165.614 46.334 166.498 45.4519 167.588 45.4519H203.114C204.204 45.4519 205.088 46.334 205.088 47.4225C205.088 48.5105 204.204 49.3926 203.114 49.3926H167.588C166.498 49.3926 165.614 48.5105 165.614 47.4225Z" fill="white" stroke="white" stroke-width="2" stroke-linecap="round" stroke-linejoin="round"/>
</g>
<defs>
<clipPath id="clip0_15_192">
<rect width="230.175" height="80" fill="white"/>
</clipPath>
</defs>
</svg>
